<svg width="580" height="344" viewBox="0 0 580 344" fill="none" xmlns="http://www.w3.org/2000/svg">
<path fill-rule="evenodd" clip-rule="evenodd" d="M400.993 87.6372C401.03 87.5798 401.067 87.5228 401.104 87.4663C401.253 87.2379 401.397 87.0167 401.537 86.8026C401.363 87.0697 401.182 87.3477 400.993 87.6372ZM463.312 198.172C448.239 191.328 448.038 167.913 462.984 159.969C469.807 156.343 481.348 158.425 486.701 164.248C502.199 181.106 483.967 207.549 463.312 198.172Z" fill="#714FFE"/>
<path fill-rule="evenodd" clip-rule="evenodd" d="M249.782 18.4567C240.423 8.69565 239.862 6.6107 243.181 2.61367C246.5 -1.38337 265.931 0.393666 265.931 0.393666C315.596 1.72667 349.608 14.9567 371.5 41.4587L375.5 46.3017L386.187 48.2077C445.621 58.8087 505.734 96.6137 552.889 153.048C579.093 184.407 583.168 192.614 577.202 202.013C476.283 360.996 283.312 390.311 156.392 265.942C147.051 256.789 142.804 252.29 138.554 252.288C134.427 252.286 130.298 256.527 121.5 264.867C94.508 290.45 66.349 302.412 32.775 302.558C32.775 302.558 21.5 303.5 15.916 299.489C10.332 295.477 10.814 283.285 22.397 275.654C38.74 264.886 44.853 256.511 49.443 238.606C52.781 225.58 58.464 214.15 65.426 206.46C69.1647 202.33 70.8454 200.526 70.525 199.21C70.2629 198.133 68.6608 197.382 65.75 195.949C54.757 190.538 33 168.813 33 163.248C33 146.212 46.794 147.289 67.075 165.909C81.285 178.954 84.411 180.756 97.199 183.28C108.408 185.492 111.195 187.147 113.02 192.678C115.284 199.539 112.185 203.108 96.558 211.64C82.297 219.425 77.566 225.833 72.897 243.69C69.985 254.824 65.308 266.19 63.069 267.574C62.532 267.906 61.091 269.584 59.867 271.304L57.641 274.43L62.07 273.727C72.656 272.046 85.008 264.216 104 247.149C133.876 220.3 144.53 220.765 176.622 250.317C237.516 306.388 307.399 327.991 379.864 313.145C404.34 308.13 405.79 306.946 399.448 297.143C391.522 284.891 378 254.349 378 248.699C378 243.216 367.262 249.761 352.465 264.264C343.894 272.664 339.896 276.613 335.09 278.469C330.773 280.137 325.803 280.114 316.282 280.111C308.797 280.108 304.334 280.475 300.201 279.476C291.707 277.422 284.609 269.598 255.548 240.94C224.252 210.075 213.331 199.825 214.531 191.276C215.211 186.432 219.782 182.134 226.743 174.943C286.605 113.1 294.833 106.871 316.633 106.895C336.796 106.917 336.893 106.959 350.581 121.588C360.556 132.25 370.978 140.156 374.977 140.093C376.009 140.077 377.429 137.16 379.379 131.054C382.722 120.588 392.263 101.155 399.773 89.5166C403.26 84.1131 404.89 81.9392 404.356 80.6958C403.907 79.6519 401.933 79.2637 398.25 78.1706C320.813 55.1866 238.543 79.5387 173.367 144.738C143.098 175.018 129.218 174.828 103.651 143.786C88.523 125.419 73.492 112.762 59.411 106.535L53.626 103.977L45.818 107.641C22.405 118.628 0 105.658 0 81.1166C0 44.4366 50.442 39.3526 59.531 75.1166C60.663 79.5716 60.792 79.6786 72.519 85.8826C91.675 96.0156 109.477 111.229 126.832 132.297C137.473 145.214 138.854 145.118 152.422 130.504C182.577 98.0257 219.582 72.6827 255.198 60.1177C270.369 54.7657 270.793 54.1697 267.041 43.4937C264.162 35.3027 259.632 28.7307 249.782 18.4567ZM425.823 95.8666C394.703 137.061 386.333 198.786 404.708 251.576C412.635 274.35 427.609 298.28 432.766 296.415C469.458 283.148 516.127 243.74 546.253 200.587L551.859 192.556L546.259 185.087C506.023 131.413 437.383 80.5636 425.823 95.8666ZM305.073 127.682C296.36 131.463 281.69 150.043 282.806 155.883C283.363 158.799 296.6 173.957 302.569 178.514C310.484 184.557 323.756 185.054 325.222 179.361C326.058 176.114 343.254 157.62 349.262 153.508L352.023 151.617L340.618 140.012C326.835 125.989 316.91 122.546 305.073 127.682ZM365.027 166.333C348.742 174.394 339.682 190.252 344.87 201.617C349.791 212.397 374.69 229.406 372.316 220.367C371.919 218.855 371.573 205.58 371.547 190.867C371.517 173.731 371.141 164.117 370.5 164.118C369.95 164.118 367.487 165.115 365.027 166.333ZM251.566 178.134C235.722 194.319 235.801 194.901 256.644 215.34L263.5 222.062L271.48 213.017C275.869 208.043 281.772 201.786 284.598 199.113L289.736 194.253L286.259 190.935C284.346 189.11 278.36 182.825 272.956 176.968L263.131 166.32L251.566 178.134ZM308.105 206.155C302.778 208.572 286.581 224.124 283.845 229.448C278.414 240.019 298.979 261.123 314.7 261.111C326.496 261.103 329.44 259.925 336.968 252.201C340.561 248.515 345.432 243.891 347.794 241.925L352.088 238.35L339.153 225.484C328.891 215.276 325.956 211.739 324.951 208.367L323.683 204.117L318.092 204.139C314.684 204.152 310.783 204.94 308.105 206.155Z" fill="#714FFE"/>
</svg>
