<svg width="256" height="256" viewBox="0 0 256 256" fill="none" xmlns="http://www.w3.org/2000/svg">
<g clip-path="url(#clip0_208_2)">
<g filter="url(#filter0_d_208_2)">
<path d="M224.16 128.879C224.16 182.037 180.832 225 127.674 225C74.5164 225 31.1891 181.673 31.1891 128.515C31.1891 97.5666 46.117 68.4389 70.8755 50.5982C76.3369 46.5932 81.7984 43.3164 87.988 40.7677C94.1776 37.8549 100.328 41.9851 102.876 48.1747C105.425 54.3643 104.372 60.7929 98.1827 63.3416C93.8135 65.162 89.4444 67.7107 85.4393 70.6235C66.8704 84.095 55.9476 105.577 55.9476 128.515C56.3117 168.201 88.3521 200.242 127.674 200.242C166.997 200.242 199.037 168.201 199.037 128.879C199.037 105.941 187.75 84.095 168.817 70.6235C164.812 67.7107 160.443 65.162 156.074 63.3416C149.884 60.4288 146.971 53.1469 149.52 46.9573C152.433 40.7677 159.715 37.8549 165.904 40.4036C172.094 42.9522 177.92 46.2291 183.381 50.2342C208.868 68.4389 224.16 97.5666 224.16 128.879Z" fill="#00FFC2"/>
<path d="M115.295 114.04V29.206C115.295 23.3805 120.028 19.0114 125.49 19.0114H129.495C135.32 19.0114 139.69 23.7446 139.69 29.206V114.04C139.69 119.866 134.956 124.235 129.495 124.235H125.49C120.028 124.235 115.295 119.866 115.295 114.04Z" fill="#00FFC2"/>
</g>
</g>
<defs>
<filter id="filter0_d_208_2" x="6.18909" y="-5.98865" width="242.971" height="255.989" filterUnits="userSpaceOnUse" color-interpolation-filters="sRGB">
<feFlood flood-opacity="0" result="BackgroundImageFix"/>
<feColorMatrix in="SourceAlpha" type="matrix" values="0 0 0 0 0 0 0 0 0 0 0 0 0 0 0 0 0 0 127 0" result="hardAlpha"/>
<feOffset/>
<feGaussianBlur stdDeviation="12.5"/>
<feComposite in2="hardAlpha" operator="out"/>
<feColorMatrix type="matrix" values="0 0 0 0 0 0 0 0 0 1 0 0 0 0 0.760784 0 0 0 1 0"/>
<feBlend mode="normal" in2="BackgroundImageFix" result="effect1_dropShadow_208_2"/>
<feBlend mode="normal" in="SourceGraphic" in2="effect1_dropShadow_208_2" result="shape"/>
</filter>
<clipPath id="clip0_208_2">
<rect width="256" height="256" rx="128" fill="white"/>
</clipPath>
</defs>
</svg>
