<svg width="193" height="206" viewBox="0 0 193 206" fill="none" xmlns="http://www.w3.org/2000/svg">
<path d="M192.971 109.867C192.971 163.025 149.643 205.989 96.4853 205.989C43.3274 205.989 0 162.661 0 109.503C0 78.5552 14.9279 49.4275 39.6864 31.5869C45.1479 27.5818 50.6093 24.305 56.7989 21.7563C62.9885 18.8436 69.1386 22.9737 71.6873 29.1633C74.236 35.3529 73.1832 41.7815 66.9936 44.3302C62.6244 46.1507 58.2553 48.6994 54.2502 51.6121C35.6814 65.0837 24.7585 86.5653 24.7585 109.503C25.1226 149.19 57.163 181.23 96.4853 181.23C135.808 181.23 167.848 149.19 167.848 109.867C167.848 86.9294 156.561 65.0837 137.628 51.6121C133.623 48.6994 129.254 46.1507 124.885 44.3302C118.695 41.4175 115.782 34.1355 118.331 27.9459C121.244 21.7563 128.526 18.8435 134.715 21.3922C140.905 23.9409 146.73 27.2178 152.192 31.2228C177.679 49.4276 192.971 78.5552 192.971 109.867Z" fill="#00FFC2"/>
<path d="M84.106 95.0289V10.1947C84.106 4.36914 88.8393 0 94.3007 0H98.3058C104.131 0 108.5 4.73324 108.5 10.1947V95.0289C108.5 100.854 103.767 105.224 98.3058 105.224H94.3007C88.8393 105.224 84.106 100.854 84.106 95.0289Z" fill="#00FFC2"/>
</svg>
